# xmcd CD database file
#
# Track frame offsets:
#	150
#	14962
#	28022
#	38327
#	55027
#	68775
#	84350
#	99767
#	111870
#	127537
#	139832
#	153372
#	169082
#	181142
#
# Disc length: 2558 seconds
#
# Revision: 0
# Processed by: cddbd v1.5PL3 Copyright (c) Steve Scherf et al.
# Submitted via: CDex 1.51
#
DISCID=a309fc0e
DTITLE=Suzanne Klee - Love Songs
DYEAR=1900
DGENRE=Country
TTITLE0=California Blue
TTITLE1=I Can't Help It (If I'm Still In Love With You)
TTITLE2=Tennessee Waltz
TTITLE3=Walkin' On The Moon
TTITLE4=You Take Me For Granted
TTITLE5=Do You Know Where Your Man Is
TTITLE6=Someday When Things Are Good
TTITLE7=Paper Roses
TTITLE8=Old Flames
TTITLE9=I Still Miss Someone
TTITLE10=Almost Persuaded
TTITLE11=Together Again
TTITLE12=Sad Songs And Waltzes
TTITLE13=Today I Started Loving You Again
EXTD=
EXTT0=
EXTT1=
EXTT2=
EXTT3=
EXTT4=
EXTT5=
EXTT6=
EXTT7=
EXTT8=
EXTT9=
EXTT10=
EXTT11=
EXTT12=
EXTT13=
PLAYORDER=
